<svg width="40" height="40" viewBox="0 0 40 40" fill="none" xmlns="http://www.w3.org/2000/svg">
<path d="M19.44 0L0 11.88V40H2.36V13.2L19.44 2.76L37.64 13.24V40H40V11.84L19.44 0Z" fill="#2F3037"/>
<path d="M27.2799 13.32H12.7199V25.44H6.63989V40H18.7999H21.1999H33.3599V25.44H27.2799V13.32ZM15.0799 15.72H17.5999V18.56H22.3599V15.72H24.8799V25.44H21.1999H18.7999H15.0799V15.72ZM8.99989 37.64V27.8H11.5199V30.64H16.2799V27.88H18.7999V37.6H8.99989V37.64ZM30.9999 37.64H21.1999V27.88H23.7199V30.64H28.4799V27.8H30.9999V37.64Z" fill="#2F3037"/>
</svg>
