<svg width="24" height="24" viewBox="0 0 24 24" fill="none" xmlns="http://www.w3.org/2000/svg">
<path d="M24 9.37934H0V4.55174C0 4.32323 0.185297 4.13793 0.413812 4.13793H23.5862C23.8147 4.13793 24 4.32323 24 4.55174L24 9.37934Z" fill="#FAB446"/>
<path d="M23.5861 19.8621H0.413812C0.185297 19.8621 0 19.6768 0 19.4483V14.6207H24V19.4483C24 19.6768 23.8147 19.8621 23.5861 19.8621Z" fill="#73AF00"/>
<path d="M24 9.37925H0V14.6203H24V9.37925Z" fill="#F5F5F5"/>
<path d="M12 14.2241C10.7735 14.2241 9.77585 13.2265 9.77585 12C9.77585 10.7736 10.7735 9.7759 12 9.7759C13.2264 9.7759 14.2241 10.7736 14.2241 12C14.2241 13.2265 13.2264 14.2241 12 14.2241ZM12 10.1897C11.0016 10.1897 10.1896 11.0017 10.1896 12C10.1896 12.9984 11.0016 13.8104 12 13.8104C12.9983 13.8104 13.8103 12.9984 13.8103 12C13.8103 11.0017 12.9983 10.1897 12 10.1897Z" fill="#41479B"/>
<path d="M12 12.2522C12.1393 12.2522 12.2521 12.1393 12.2521 12C12.2521 11.8608 12.1393 11.7479 12 11.7479C11.8608 11.7479 11.7479 11.8608 11.7479 12C11.7479 12.1393 11.8608 12.2522 12 12.2522Z" fill="#41479B"/>
<path d="M12 12.0379L11.3592 12.1025L9.98276 12.0379V11.9622L11.3592 11.8975L12 11.9622V12.0379Z" fill="#41479B"/>
<path d="M12 12.0379L12.6407 12.1025L14.0172 12.0379V11.9622L12.6407 11.8975L12 11.9622V12.0379Z" fill="#41479B"/>
<path d="M11.9622 12L11.8975 11.3592L11.9622 9.98281H12.0378L12.1025 11.3592L12.0378 12H11.9622Z" fill="#41479B"/>
<path d="M11.9622 12L11.8975 12.6408L11.9622 14.0172H12.0378L12.1025 12.6408L12.0378 12H11.9622Z" fill="#41479B"/>
<path d="M11.9732 12.0267L11.4744 11.6194L10.5468 10.6004L10.6003 10.5469L11.6194 11.4745L12.0267 11.9733L11.9732 12.0267Z" fill="#41479B"/>
<path d="M11.9733 12.0267L12.3806 12.5256L13.3997 13.4531L13.4532 13.3997L12.5256 12.3806L12.0268 11.9733L11.9733 12.0267Z" fill="#41479B"/>
<path d="M11.9733 11.9733L12.3806 11.4745L13.3997 10.5469L13.4532 10.6004L12.5256 11.6194L12.0268 12.0267L11.9733 11.9733Z" fill="#41479B"/>
<path d="M11.9732 11.9733L11.4744 12.3806L10.5468 13.3997L10.6003 13.4531L11.6194 12.5256L12.0267 12.0267L11.9732 11.9733Z" fill="#41479B"/>
<path d="M12.0145 12.035L11.4472 12.34L10.1508 12.8069L10.1218 12.737L11.3688 12.1505L11.9855 11.9651L12.0145 12.035Z" fill="#41479B"/>
<path d="M12.0144 12.035L12.6311 11.8495L13.878 11.263L13.8491 11.1931L12.5527 11.6601L11.9854 11.9651L12.0144 12.035Z" fill="#41479B"/>
<path d="M11.965 12.0145L11.66 11.4472L11.1931 10.1509L11.2629 10.1219L11.8495 11.3688L12.0349 11.9855L11.965 12.0145Z" fill="#41479B"/>
<path d="M11.965 12.0145L12.1504 12.6312L12.7369 13.8782L12.8068 13.8492L12.3399 12.5528L12.0349 11.9855L11.965 12.0145Z" fill="#41479B"/>
<path d="M11.9855 12.035L11.3688 11.8495L10.1218 11.263L10.1508 11.1931L11.4472 11.6601L12.0145 11.9651L11.9855 12.035Z" fill="#41479B"/>
<path d="M11.9854 12.035L12.5527 12.34L13.8491 12.8069L13.878 12.737L12.6311 12.1505L12.0144 11.9651L11.9854 12.035Z" fill="#41479B"/>
<path d="M11.965 11.9855L12.1504 11.3688L12.7369 10.1219L12.8068 10.1509L12.3399 11.4472L12.0349 12.0145L11.965 11.9855Z" fill="#41479B"/>
<path d="M11.965 11.9855L11.66 12.5528L11.1931 13.8492L11.2629 13.8782L11.8495 12.6312L12.0349 12.0145L11.965 11.9855Z" fill="#41479B"/>
<path d="M12 12.3401C12.1878 12.3401 12.3401 12.1879 12.3401 12C12.3401 11.8122 12.1878 11.6599 12 11.6599C11.8121 11.6599 11.6598 11.8122 11.6598 12C11.6598 12.1879 11.8121 12.3401 12 12.3401Z" fill="#F5F5F5"/>
<path d="M11.9999 12.204C12.1126 12.204 12.2039 12.1127 12.2039 12C12.2039 11.8874 12.1126 11.7961 11.9999 11.7961C11.8873 11.7961 11.796 11.8874 11.796 12C11.796 12.1127 11.8873 12.204 11.9999 12.204Z" fill="#41479B"/>
</svg>
