<svg width="360" height="90" viewBox="0 0 360 90" fill="none" xmlns="http://www.w3.org/2000/svg">
<path fill-rule="evenodd" clip-rule="evenodd" d="M0 4.88889L11 14.8889C22 24.8889 44 44.8889 67 50.8889C89 56.8889 111 48.8889 133 38.8889C156 28.8889 178 16.8889 200 8.88889C222 0.888889 244 -3.11111 267 2.88889C289 8.88889 311 24.8889 333 28.8889C356 32.8889 378 24.8889 389 20.8889L400 16.8889V112.889H389C378 112.889 356 112.889 333 112.889C311 112.889 289 112.889 267 112.889C244 112.889 222 112.889 200 112.889C178 112.889 156 112.889 133 112.889C111 112.889 89 112.889 67 112.889C44 112.889 22 112.889 11 112.889H0V4.88889Z" fill="#2E3B62" fill-opacity="0.5"/>
</svg>
