<svg width="360" height="96" viewBox="0 0 360 96" fill="none" xmlns="http://www.w3.org/2000/svg">
<path fill-rule="evenodd" clip-rule="evenodd" d="M0 18.664L16.6667 12.664C33.3333 6.66399 66.6667 -5.33601 100 2.66399C133.333 10.664 166.667 38.664 200 54.664C233.333 70.664 266.667 74.664 300 64.664C333.333 54.664 366.667 30.664 383.333 18.664L400 6.66399V102.664H383.333C366.667 102.664 333.333 102.664 300 102.664C266.667 102.664 233.333 102.664 200 102.664C166.667 102.664 133.333 102.664 100 102.664C66.6667 102.664 33.3333 102.664 16.6667 102.664H0V18.664Z" fill="#93D2F3"/>
</svg>
